<svg width="500" height="500" viewBox="0 0 500 500" fill="none" xmlns="http://www.w3.org/2000/svg">
<rect width="500" height="500" fill="#1E1E1E"/>
<rect width="500" height="500" rx="50" fill="#16A34A"/>
<path d="M39.0094 362V135.56H155.289C170.181 135.56 182.625 138.008 192.621 142.904C202.617 147.8 210.165 154.43 215.265 162.794C220.365 171.158 222.915 180.542 222.915 190.946C222.915 204.614 219.345 215.426 212.205 223.382C205.065 231.134 196.905 236.336 187.725 238.988V241.742C193.641 242.966 200.067 245.618 207.003 249.698C214.143 253.778 220.161 259.694 225.057 267.446C230.157 274.994 232.707 284.888 232.707 297.128C232.707 307.94 230.157 318.344 225.057 328.34C219.957 338.132 211.899 346.19 200.883 352.514C190.071 358.838 175.689 362 157.737 362H39.0094ZM143.049 184.214H97.7614V223.688H143.049C150.801 223.688 156.615 221.954 160.491 218.486C164.367 214.814 166.305 209.918 166.305 203.798C166.305 197.882 164.367 193.19 160.491 189.722C156.615 186.05 150.801 184.214 143.049 184.214ZM147.333 267.446H97.7614V313.346H147.333C156.309 313.346 162.939 311.204 167.223 306.92C171.507 302.636 173.649 297.026 173.649 290.09C173.649 283.154 171.507 277.646 167.223 273.566C162.939 269.486 156.309 267.446 147.333 267.446ZM263.429 362V135.56H357.065C375.833 135.56 392.255 138.824 406.331 145.352C420.611 151.676 432.443 160.244 441.827 171.056C451.415 181.868 458.555 194.006 463.247 207.47C467.939 220.934 470.285 234.704 470.285 248.78C470.285 262.856 467.939 276.626 463.247 290.09C458.555 303.554 451.415 315.692 441.827 326.504C432.443 337.316 420.611 345.986 406.331 352.514C392.255 358.838 375.833 362 357.065 362H263.429ZM354.311 186.968H322.181V309.674H354.311C367.571 309.674 378.383 306.716 386.747 300.8C395.111 294.68 401.231 286.928 405.107 277.544C409.187 268.16 411.227 258.368 411.227 248.168C411.227 237.968 409.187 228.278 405.107 219.098C401.231 209.714 395.111 202.064 386.747 196.148C378.383 190.028 367.571 186.968 354.311 186.968Z" fill="white"/>
</svg>
